<svg width="68" height="68" viewBox="0 0 68 68" fill="none" xmlns="http://www.w3.org/2000/svg">
<circle cx="34" cy="34" r="34" fill="white" fill-opacity="0.37"/>
<path d="M15.5937 33.7972C15.5937 31.5892 15.9777 29.6372 16.7457 27.9412C17.5137 26.2772 18.5857 24.9652 19.9617 24.0052C21.3377 23.0452 22.8737 22.5332 24.5697 22.4692L24.5697 26.0212C22.9377 26.1812 21.4977 26.9012 20.2497 28.1812C19.0337 29.4612 18.4257 31.3332 18.4257 33.7972C18.4257 36.0692 19.0017 37.8612 20.1537 39.1732C21.3377 40.5172 22.8257 41.1892 24.6177 41.1892C26.0577 41.1892 27.2097 40.8212 28.0737 40.0852C28.9697 39.3492 29.6257 38.4372 30.0417 37.3493C30.4897 36.2613 30.9697 34.7573 31.4817 32.8373C32.0897 30.5972 32.6817 28.8212 33.2577 27.5093C33.8337 26.1972 34.7297 25.0772 35.9457 24.1492C37.1617 23.2212 38.8097 22.7572 40.8897 22.7572C42.6177 22.7572 44.1537 23.2053 45.4977 24.1013C46.8737 24.9973 47.9457 26.2613 48.7137 27.8933C49.4817 29.5253 49.8657 31.3973 49.8657 33.5093C49.8657 36.6133 49.0977 39.1093 47.5617 40.9973C46.0577 42.9173 44.1057 44.0213 41.7057 44.3093L41.7057 40.6613C43.0817 40.4373 44.2977 39.6853 45.3537 38.4053C46.4417 37.1253 46.9857 35.3973 46.9857 33.2213C46.9857 31.2053 46.4417 29.5253 45.3537 28.1813C44.2977 26.8373 42.8417 26.1652 40.9857 26.1652C39.5777 26.1652 38.4417 26.5332 37.5777 27.2692C36.7137 28.0052 36.0577 28.9172 35.6097 30.0053C35.1617 31.1253 34.6817 32.6292 34.1697 34.5172C33.5617 36.6933 32.9537 38.4533 32.3457 39.7973C31.7697 41.1413 30.8737 42.2773 29.6577 43.2053C28.4417 44.1333 26.8097 44.5973 24.7617 44.5972C23.1937 44.5972 21.7057 44.1812 20.2977 43.3493C18.8897 42.5173 17.7537 41.2853 16.8897 39.6533C16.0257 38.0212 15.5937 36.0692 15.5937 33.7972Z" fill="white"/>
</svg>
