<svg width="33" height="31" viewBox="0 0 33 31" fill="none" xmlns="http://www.w3.org/2000/svg">
<path d="M6 17.2544C6 18.9956 6.34294 20.7196 7.00923 22.3282C7.67553 23.9368 8.65213 25.3984 9.88328 26.6295C11.1144 27.8607 12.576 28.8373 14.1846 29.5036C15.7932 30.1699 17.5172 30.5128 19.2583 30.5128C20.9995 30.5128 22.7235 30.1699 24.3321 29.5036C25.9407 28.8373 27.4023 27.8607 28.6334 26.6295C29.8646 25.3984 30.8412 23.9368 31.5075 22.3282C32.1738 20.7196 32.5167 18.9956 32.5167 17.2544C32.5167 13.7381 31.1198 10.3658 28.6334 7.87937C26.147 5.39295 22.7747 3.99609 19.2583 3.99609C15.742 3.99609 12.3697 5.39295 9.88328 7.87937C7.39686 10.3658 6 13.7381 6 17.2544Z" fill="white"/>
<path d="M24.3972 9.67691H1.47733L12.9373 1.25511L24.3972 9.67691Z" stroke="#2662F0" stroke-width="0.6"/>
<path d="M20.936 25.3542V11.6094H4.28125V12.5898H7.48021C7.97042 12.5898 8.36637 12.9857 8.36637 13.476C8.36637 13.9662 7.97042 14.3621 7.48021 14.3621H4.28125V16.2978H6.1227C6.61291 16.2978 7.00885 16.6938 7.00885 17.184C7.00885 17.6742 6.61291 18.0701 6.1227 18.0701H4.28125V25.3542" fill="#2662F0"/>
<path d="M9.69378 25.9893H15.3941V21.0369C15.3941 19.4657 14.112 18.1836 12.5408 18.1836C10.9696 18.1836 9.6875 19.4657 9.6875 21.0369V25.9893H9.69378Z" fill="white"/>
</svg>
