<svg width="37" height="33" viewBox="0 0 37 33" fill="none" xmlns="http://www.w3.org/2000/svg">
<path d="M8.36719 13.7701C8.36719 15.5112 8.71012 17.2352 9.37642 18.8438C10.0427 20.4524 11.0193 21.914 12.2505 23.1451C13.4816 24.3763 14.9432 25.3529 16.5518 26.0192C18.1604 26.6855 19.8844 27.0284 21.6255 27.0284C23.3666 27.0284 25.0907 26.6855 26.6993 26.0192C28.3079 25.3529 29.7695 24.3763 31.0006 23.1451C32.2318 21.914 33.2084 20.4524 33.8747 18.8438C34.5409 17.2352 34.8839 15.5112 34.8839 13.7701C34.8839 10.2537 33.487 6.88142 31.0006 4.395C28.5142 1.90858 25.1419 0.511719 21.6255 0.511719C18.1092 0.511719 14.7369 1.90858 12.2505 4.395C9.76405 6.88142 8.36719 10.2537 8.36719 13.7701Z" fill="white"/>
<path d="M6.43772 25.2941C6.60154 25.5077 6.5213 25.8441 6.25837 26.0457L3.74885 27.9704C3.48592 28.1719 3.1402 28.1623 2.97638 27.9487C2.81257 27.7352 2.8928 27.3987 3.15573 27.1971L5.66526 25.2725C5.92799 25.0709 6.27391 25.0805 6.43772 25.2941ZM7.01491 28.4431C7.17872 28.6567 7.09849 28.9932 6.83556 29.1948L4.32603 31.1194C4.0631 31.321 3.71738 31.3114 3.55357 31.0978C3.38975 30.8842 3.46999 30.5477 3.73292 30.3462L6.24244 28.4215C6.50537 28.2197 6.85109 28.2296 7.01491 28.4431ZM3.54629 23.9202C3.7101 24.1338 3.62987 24.4703 3.36694 24.6719L0.857413 26.5965C0.594484 26.7981 0.248763 26.7885 0.0849482 26.5749C-0.0788662 26.3613 0.00136949 26.0249 0.264299 25.8233L2.77383 23.8986C3.4456 23.3832 3.60883 24.0019 3.54629 23.9202Z" fill="#2662F0"/>
<path d="M7.76779 19.5333L0.789062 16.4571L1.15701 16.1454C4.89996 12.9745 7.72532 12.3086 9.43622 12.3086C10.8669 12.3086 11.636 12.7666 11.6683 12.7863L11.9302 12.9458L7.76779 19.5333ZM1.91924 16.2962L7.53554 18.7715L11.0712 13.1762C10.7646 13.0624 10.213 12.9121 9.43622 12.9121C7.88225 12.9121 5.33496 13.5096 1.91924 16.2962Z" fill="#2662F0"/>
<path d="M13.2314 32.6694L12.0703 25.1316L19.512 22.8203L19.5979 23.1149C19.6492 23.2897 20.767 27.4523 13.6276 32.3951L13.2314 32.6694ZM12.7458 25.5538L13.6797 31.6199C18.9832 27.8014 19.1596 24.5719 19.0673 23.59L12.7458 25.5538Z" fill="#2662F0"/>
<path d="M20.926 21.9338C26.7425 17.4731 29.7181 11.5887 27.5724 8.79073C25.4265 5.9927 18.9719 7.34058 13.1552 11.8013C9.36699 14.7065 6.78549 18.2151 6.03741 21.0823L6.03938 21.0829C6.03042 21.1008 6.02502 21.1203 6.02345 21.1403C6.01656 21.2379 9.62894 22.3981 9.88302 26.1979C9.88597 26.2418 9.90347 26.2845 9.93041 26.3197C9.96483 26.3645 10.0148 26.3971 10.0689 26.405C10.0863 26.4069 10.1039 26.4057 10.121 26.4015C13.0834 26.4209 17.1394 24.8377 20.926 21.9338Z" fill="#2662F0"/>
<path d="M10.0888 26.7127L10.0268 26.7078C9.9006 26.6897 9.77847 26.616 9.69548 26.507C9.6313 26.4248 9.59358 26.325 9.58732 26.2209C9.45025 24.1757 8.27464 22.5958 6.09255 21.5271C5.8719 21.4192 5.71241 21.3411 5.72756 21.1246C5.73031 21.0852 5.73818 21.0471 5.75155 21.0087C6.54938 17.9541 9.25025 14.4247 12.9769 11.5671C16.6766 8.72954 20.7647 7.03516 23.9125 7.03516C25.6757 7.03516 27.0258 7.58068 27.8169 8.61214C30.0602 11.5376 27.0537 17.6233 21.1149 22.1786C17.4162 25.0148 13.3287 26.7086 10.1808 26.7086H10.1806L10.0888 26.7127ZM6.38006 20.9964C8.72853 22.1535 10.0078 23.8719 10.1836 26.1051C13.2028 26.1041 17.1517 24.4575 20.7477 21.6994C26.4226 17.3468 29.3792 11.6406 27.3383 8.9793C26.6657 8.10241 25.4811 7.6385 23.9125 7.6385C20.8931 7.6385 16.9423 9.28608 13.344 12.0461C9.78791 14.7728 7.19854 18.1047 6.38006 20.9964Z" fill="#2662F0"/>
<path d="M17.9427 23.688L10.6178 14.0352C10.2185 14.4554 9.83519 14.8906 9.46875 15.3398L16.3844 24.4536C16.9133 24.2182 17.4331 23.9628 17.9427 23.688Z" fill="white"/>
<path d="M16.2816 24.8232L9.07812 15.3304L9.22778 15.1463C9.59909 14.6913 9.9873 14.2503 10.3916 13.8242L10.636 13.5664L18.389 23.7839L18.0785 23.9508C17.5623 24.229 17.0357 24.4876 16.4999 24.726L16.2816 24.8232ZM9.84607 15.3448L16.4722 24.0771C16.8122 23.9211 17.1483 23.7569 17.4803 23.5847L10.5867 14.4993C10.3328 14.775 10.0859 15.0569 9.84607 15.3448Z" fill="#2662F0"/>
<path d="M14.7133 25.4562L8.14123 16.8867C7.87653 17.2179 7.57525 17.6875 7.36719 18.1807L13.2193 25.9001C13.6374 25.8442 14.3247 25.6259 14.7133 25.4562Z" fill="white"/>
<path d="M13.0947 26.2269L7.03125 18.2291L7.0991 18.0686C7.29359 17.6071 7.59093 17.1097 7.91522 16.7038L8.15573 16.4023L15.1968 25.5834L14.8438 25.7376C14.4373 25.9154 13.7193 26.1441 13.2688 26.2041L13.0947 26.2269ZM7.72505 18.1457L13.3592 25.5769C13.6226 25.5244 13.9535 25.4267 14.2393 25.326L8.15553 17.3935C7.99251 17.6325 7.84857 17.884 7.72505 18.1457Z" fill="#2662F0"/>
<path d="M17.25 14.6066C17.25 15.3321 17.5382 16.0279 18.0512 16.5409C18.5642 17.0539 19.26 17.3421 19.9855 17.3421C20.711 17.3421 21.4068 17.0539 21.9198 16.5409C22.4328 16.0279 22.721 15.3321 22.721 14.6066C22.721 13.8811 22.4328 13.1853 21.9198 12.6723C21.4068 12.1593 20.711 11.8711 19.9855 11.8711C19.26 11.8711 18.5642 12.1593 18.0512 12.6723C17.5382 13.1853 17.25 13.8811 17.25 14.6066Z" fill="#ECF3FE"/>
<path d="M19.9825 17.6397C18.3079 17.6397 16.9453 16.2779 16.9453 14.6034C16.9453 12.9288 18.3079 11.5664 19.9825 11.5664C21.657 11.5664 23.0194 12.9288 23.0194 14.6034C23.0194 16.2779 21.6572 17.6397 19.9825 17.6397ZM19.9825 12.1694C18.6405 12.1694 17.5487 13.2612 17.5487 14.6034C17.5487 15.9451 18.6405 17.037 19.9825 17.037C21.3244 17.037 22.4161 15.9451 22.4161 14.6034C22.4161 13.2612 21.3244 12.1694 19.9825 12.1694Z" fill="#2662F0"/>
<path d="M20.8025 12.457C21.5529 12.8415 21.8705 13.7406 21.7704 14.636C21.5523 16.5903 19.2399 16.8012 19.0078 16.7235C19.3348 16.8912 19.697 16.9785 20.0644 16.9782C21.3462 16.9782 22.3854 15.939 22.3854 14.6572C22.3854 13.6336 21.7223 12.7654 20.8025 12.457Z" fill="white"/>
<path d="M33.75 2.25305C33.75 2.64443 33.9055 3.01978 34.1822 3.29653C34.459 3.57328 34.8343 3.72876 35.2257 3.72876C35.6171 3.72876 35.9924 3.57328 36.2692 3.29653C36.5459 3.01978 36.7014 2.64443 36.7014 2.25305C36.7014 1.86167 36.5459 1.48632 36.2692 1.20957C35.9924 0.932819 35.6171 0.777344 35.2257 0.777344C34.8343 0.777344 34.459 0.932819 34.1822 1.20957C33.9055 1.48632 33.75 1.86167 33.75 2.25305Z" fill="white"/>
<path d="M35.2231 4.03873C34.2429 4.03873 33.4453 3.24149 33.4453 2.26155C33.4453 1.28162 34.2428 0.484375 35.2231 0.484375C36.2034 0.484375 37.0005 1.28162 37.0005 2.26155C37.0005 3.24149 36.2032 4.03873 35.2231 4.03873ZM35.2231 1.08732C34.9118 1.08769 34.6133 1.21152 34.3932 1.43165C34.173 1.65178 34.0492 1.95024 34.0488 2.26155C34.0492 2.57287 34.173 2.87133 34.3932 3.09146C34.6133 3.31159 34.9118 3.43542 35.2231 3.43579C35.5344 3.43542 35.8328 3.31159 36.0529 3.09145C36.273 2.87131 36.3968 2.57285 36.3971 2.26155C36.3968 1.95027 36.273 1.65185 36.0529 1.43172C35.8328 1.21159 35.5344 1.08774 35.2231 1.08732Z" fill="#2662F0"/>
<path d="M5.92969 3.59897C5.92969 3.8925 6.04629 4.17402 6.25386 4.38158C6.46142 4.58914 6.74293 4.70575 7.03647 4.70575C7.33 4.70575 7.61152 4.58914 7.81908 4.38158C8.02664 4.17402 8.14325 3.8925 8.14325 3.59897C8.14325 3.30543 8.02664 3.02392 7.81908 2.81636C7.61152 2.60879 7.33 2.49219 7.03647 2.49219C6.74293 2.49219 6.46142 2.60879 6.25386 2.81636C6.04629 3.02392 5.92969 3.30543 5.92969 3.59897Z" fill="#2662F0"/>
</svg>
