<svg width="255" height="259" viewBox="0 0 255 259" fill="none" xmlns="http://www.w3.org/2000/svg">
<g clip-path="url(#clip0_2523_11492)">
<path d="M107.503 119.373L199.575 119.208C199.739 119.208 199.897 119.143 200.013 119.026C200.13 118.91 200.195 118.751 200.195 118.587C200.195 118.422 200.13 118.264 200.013 118.147C199.897 118.03 199.739 117.965 199.575 117.965L107.503 118.129C107.339 118.129 107.181 118.195 107.065 118.312C106.948 118.428 106.883 118.586 106.883 118.751C106.883 118.916 106.948 119.074 107.065 119.191C107.181 119.307 107.339 119.373 107.503 119.373Z" fill="#3F3D56"/>
<path d="M106.133 128.076C110.931 128.076 114.82 124.179 114.82 119.372C114.82 114.565 110.931 110.668 106.133 110.668C101.335 110.668 97.4453 114.565 97.4453 119.372C97.4453 124.179 101.335 128.076 106.133 128.076Z" fill="#3F3D56"/>
<path d="M195.448 119.328C183.67 119.328 172.157 115.828 162.364 109.272C152.571 102.716 144.939 93.3982 140.431 82.4961C135.924 71.594 134.745 59.5976 137.043 48.024C139.34 36.4503 145.012 25.8193 153.34 17.4751C161.668 9.13101 172.279 3.44859 183.83 1.14645C195.382 -1.15569 207.355 0.0258528 218.237 4.54166C229.118 9.05747 238.418 16.7047 244.962 26.5164C251.505 36.328 254.997 47.8634 254.997 59.6638C254.98 75.4821 248.7 90.6474 237.536 101.833C226.372 113.018 211.236 119.31 195.448 119.328ZM195.448 4.11477C184.482 4.11477 173.763 7.37266 164.646 13.4765C155.528 19.5803 148.422 28.2558 144.226 38.4061C140.029 48.5563 138.931 59.7254 141.071 70.5008C143.21 81.2763 148.49 91.1742 156.244 98.9428C163.998 106.712 173.877 112.002 184.632 114.145C195.386 116.289 206.534 115.189 216.665 110.984C226.796 106.78 235.455 99.6601 241.547 90.5251C247.639 81.3902 250.891 70.6503 250.891 59.6638C250.874 44.9364 245.027 30.817 234.633 20.4032C224.239 9.98932 210.147 4.13149 195.448 4.11477Z" fill="#3F3D56"/>
<path d="M221.145 83.5703C218.965 83.5717 216.834 82.9256 215.021 81.7135C213.208 80.5014 211.795 78.7779 210.959 76.7609C210.124 74.7439 209.904 72.5239 210.328 70.3818C210.752 68.2397 211.8 66.2716 213.34 64.7264C214.88 63.1811 216.843 62.1282 218.981 61.7007C221.118 61.2732 223.334 61.4904 225.348 62.3247C227.363 63.1591 229.085 64.5731 230.297 66.388C231.509 68.203 232.157 70.3373 232.158 72.5211C232.159 75.4492 230.999 78.2577 228.934 80.3295C226.869 82.4014 224.068 83.567 221.145 83.5703ZM195.45 83.5703C192.53 83.5669 189.731 82.4034 187.667 80.3348C185.602 78.2663 184.441 75.4617 184.437 72.5363V46.792C184.437 43.8656 185.598 41.059 187.663 38.9896C189.728 36.9203 192.529 35.7578 195.45 35.7578C198.371 35.7578 201.172 36.9203 203.238 38.9896C205.303 41.059 206.463 43.8656 206.463 46.792V72.5363C206.46 75.4617 205.299 78.2664 203.234 80.3349C201.169 82.4035 198.37 83.567 195.45 83.5703ZM169.763 83.5703C166.841 83.5669 164.04 82.4025 161.974 80.3324C159.908 78.2624 158.745 75.4558 158.742 72.5283V62.2426C158.742 59.3142 159.903 56.5057 161.97 54.4349C164.037 52.3642 166.84 51.2009 169.763 51.2009C172.686 51.2009 175.489 52.3642 177.556 54.4349C179.622 56.5057 180.783 59.3142 180.783 62.2426V72.5283C180.78 75.4558 179.618 78.2625 177.552 80.3325C175.486 82.4026 172.685 83.567 169.763 83.5703Z" fill="#0496FF"/>
<path d="M16.0469 205.789V206.79C16.0483 208.448 16.7064 210.038 17.8767 211.21C19.047 212.383 20.6339 213.042 22.2889 213.044H75.2213C76.8767 213.043 78.464 212.384 79.6345 211.211C80.8049 210.039 81.4628 208.448 81.4634 206.79V205.789C81.4665 204.326 80.9535 202.908 80.015 201.787C79.7027 201.414 79.3493 201.079 78.9614 200.786H51.5065C51.1754 200.786 50.858 200.654 50.6239 200.419C50.3898 200.185 50.2582 199.867 50.2581 199.535H22.2889C20.6341 199.537 19.0478 200.197 17.8776 201.369C16.7075 202.542 16.0492 204.131 16.0469 205.789Z" fill="#3F3D56"/>
<path d="M45.2583 258.824H51.75L51.75 212.795H45.2583L45.2583 258.824Z" fill="#3F3D56"/>
<path d="M26.7812 258.596C26.7812 259.299 36.6184 258.868 48.7532 258.868C60.888 258.868 70.7252 259.299 70.7252 258.596C70.7252 257.893 60.888 252.32 48.7532 252.32C36.6184 252.32 26.7812 257.893 26.7812 258.596Z" fill="#3F3D56"/>
<path d="M26.237 204.736L48.3886 208.278L74.1258 212.396L83.0495 213.822C83.9062 213.957 84.7815 213.747 85.4836 213.236C86.1856 212.726 86.6571 211.958 86.7947 211.1L87.1992 208.568L87.5737 206.212L87.8831 204.271C87.9531 203.836 87.9343 203.393 87.8279 202.966C87.7215 202.539 87.5297 202.139 87.2641 201.789C86.9501 201.358 86.5326 201.014 86.0505 200.788H51.5096C51.1786 200.788 50.8611 200.656 50.627 200.422C50.3929 200.187 50.2614 199.869 50.2612 199.537V198.552C50.2614 198.22 50.3929 197.902 50.627 197.668C50.8611 197.433 51.1786 197.301 51.5096 197.301H65.0824L58.8253 196.3L39.5898 193.223L28.3593 191.427C27.5005 191.291 26.6229 191.501 25.9189 192.013C25.2149 192.524 24.742 193.294 24.6041 194.154L23.5154 200.978C23.3825 201.838 23.5939 202.715 24.1037 203.419C24.6135 204.123 25.3803 204.596 26.237 204.736Z" fill="#DEB199"/>
<path d="M74.125 203.782V241.912C74.1263 242.78 74.4712 243.613 75.0844 244.227C75.6975 244.842 76.5287 245.187 77.3957 245.189H84.3019C85.1691 245.187 86.0003 244.842 86.6135 244.227C87.2266 243.613 87.5717 242.78 87.5729 241.912V203.782C87.5741 203.059 87.3332 202.356 86.8887 201.786C86.5596 201.348 86.1226 201.003 85.6203 200.785H76.0725C75.5725 201.004 75.1374 201.349 74.8092 201.786C74.3654 202.356 74.1246 203.059 74.125 203.782Z" fill="#DEB199"/>
<path d="M53.3072 139.247C53.3423 139.587 53.4299 139.92 53.5669 140.233C53.7749 140.711 54.0953 141.132 54.5008 141.459L54.5159 141.469L74.2207 157.484L74.5101 157.714L78.5901 161.031L79.8234 162.032H101.161L99.9328 161.031L83.0693 147.322L71.7688 138.136L62.9751 130.992C62.4604 130.572 61.8294 130.32 61.1673 130.271C61.1647 130.269 61.1611 130.267 61.1573 130.266C60.961 130.252 60.7637 130.256 60.568 130.276C60.2749 130.306 59.9875 130.377 59.7141 130.487C59.5272 130.554 59.3494 130.645 59.1848 130.757C58.8743 130.946 58.599 131.188 58.3709 131.472L54.0863 136.761L54.0214 136.846C53.7498 137.179 53.5468 137.562 53.4242 137.975C53.3016 138.387 53.2619 138.819 53.3072 139.247Z" fill="#DEB199"/>
<path d="M54.5179 141.47C54.8892 142.4 55.4293 143.253 56.1109 143.987L69.2291 158.106C69.5461 158.397 69.9175 158.624 70.322 158.771C70.7264 158.919 71.156 158.985 71.5861 158.966C72.0161 158.947 72.4381 158.843 72.828 158.66C73.2179 158.477 73.5679 158.219 73.858 157.9L74.2228 157.485L74.3825 157.305L80.0503 150.936L82.4871 148.194C82.6491 148.025 82.79 147.837 82.9065 147.634C82.9665 147.534 83.0213 147.429 83.0713 147.324C83.2757 146.856 83.3696 146.348 83.3459 145.838C83.3293 145.404 83.2257 144.978 83.0413 144.585C82.8568 144.192 82.5953 143.841 82.2723 143.551L67.0617 131.904C65.3834 130.614 63.2703 130.029 61.1693 130.273C61.1667 130.27 61.1632 130.268 61.1593 130.268C60.6927 130.326 60.2317 130.423 59.781 130.558C59.5813 130.613 59.3867 130.683 59.1868 130.758C57.8972 131.244 56.7538 132.054 55.8661 133.11C54.9003 134.247 54.2639 135.627 54.0263 137.101C53.7886 138.575 53.9586 140.086 54.5179 141.47Z" fill="#393838"/>
<path d="M48.2869 118.642C62.1101 118.642 73.316 107.415 73.316 93.5654C73.316 79.7157 62.1101 68.4883 48.2869 68.4883C34.4637 68.4883 23.2578 79.7157 23.2578 93.5654C23.2578 107.415 34.4637 118.642 48.2869 118.642Z" fill="#DEB199"/>
<path d="M41.6203 201.278L50.9034 202.759L51.1133 202.794L65.2252 205.05L74.1189 206.476L87.1923 208.568L87.5668 208.628L89.5092 208.938L98.4328 210.364C99.2896 210.499 100.165 210.289 100.867 209.778C101.569 209.268 102.041 208.5 102.178 207.642L102.957 202.759L103.267 200.818C103.267 200.808 103.272 200.798 103.272 200.787H51.5027C51.1717 200.787 50.8542 200.656 50.6201 200.421C50.386 200.186 50.2545 199.868 50.2543 199.537V198.551C50.2545 198.219 50.386 197.901 50.6201 197.667C50.8542 197.432 51.1717 197.3 51.5027 197.3H67.8618V191.832L66.863 191.672L61.9294 190.881L43.7378 187.974C42.8803 187.838 42.0038 188.048 41.3007 188.558C40.5976 189.068 40.1253 189.837 39.9874 190.696L39.5829 193.223L38.8987 197.525C38.7647 198.384 38.9759 199.262 39.486 199.965C39.9961 200.668 40.7636 201.14 41.6203 201.278Z" fill="#393838"/>
<path d="M14.2266 179.123C14.2266 199.566 16.2991 211.793 48.2583 208.291C48.3032 208.286 48.3432 208.281 48.388 208.276C54.0882 207.712 59.7257 206.632 65.2315 205.049C68.0928 204.212 70.8737 203.12 73.541 201.787C74.1701 201.467 74.7743 201.132 75.3687 200.786H51.509C51.178 200.786 50.8605 200.654 50.6264 200.42C50.3923 200.185 50.2608 199.867 50.2606 199.536V198.55C50.2608 198.218 50.3923 197.9 50.6264 197.666C50.8605 197.431 51.178 197.299 51.509 197.299H67.8681V165.699C67.8695 164.727 68.2556 163.795 68.9417 163.107C69.6279 162.42 70.5581 162.033 71.5284 162.032H84.8366C84.7215 161.701 84.6069 161.366 84.4821 161.031C83.2335 157.57 81.7537 154.196 80.0527 150.934C77.7223 146.404 74.9489 142.117 71.7732 138.136C69.5619 135.362 67.0794 132.816 64.3628 130.536C59.354 126.394 53.901 123.832 48.368 123.832C27.9642 123.832 14.2266 158.679 14.2266 179.123Z" fill="#6B6B6B"/>
<path d="M47.7604 102.859L47.7344 101.922C49.4744 101.874 51.0085 101.764 52.1612 100.921C52.488 100.668 52.7566 100.347 52.9488 99.9813C53.141 99.6151 53.2522 99.2118 53.2749 98.7988C53.2951 98.5464 53.257 98.2927 53.1635 98.0575C53.07 97.8223 52.9236 97.6118 52.7357 97.4425C51.9705 96.795 50.7393 97.0046 49.8418 97.4169L49.0679 97.7724L50.552 86.9062L51.4787 87.0335L50.2163 96.2766C51.4357 95.9174 52.5656 96.0721 53.3395 96.7269C53.6367 96.9868 53.8698 97.312 54.0207 97.6772C54.1717 98.0423 54.2363 98.4374 54.2095 98.8317C54.1822 99.3867 54.0341 99.929 53.7756 100.421C53.5171 100.912 53.1544 101.341 52.7129 101.677C51.2318 102.762 49.307 102.816 47.7604 102.859Z" fill="#2F2E41"/>
<path d="M61.1 87.832H56.0625V88.7692H61.1V87.832Z" fill="#2F2E41"/>
<path d="M45.2015 87.832H40.1641V88.7692H45.2015V87.832Z" fill="#2F2E41"/>
<path d="M28.313 86.6752C30.2595 83.7394 33.6847 82.4949 37.0623 82.1922C40.864 81.8514 44.5375 82.5859 48.2493 83.2996C52.3343 84.0849 56.6576 84.8197 60.7737 83.8268C62.5946 83.4048 64.2961 82.5741 65.75 81.3973C67.2038 80.2206 68.3721 78.7285 69.1666 77.0336C70.6737 73.7268 70.9984 70.0009 70.0862 66.4825C69.1216 62.7404 66.7274 59.4477 63.8251 56.9608C57.9012 51.8849 49.8848 49.6037 42.1745 49.8185C34.4933 50.0172 27.0692 52.6326 20.9543 57.2942C14.8292 62.1241 10.5189 68.8916 8.72719 76.492C6.8536 84.03 7.46394 91.9731 10.4671 99.1349C12.1543 103.056 14.5946 106.592 16.4775 110.415C18.2307 113.974 19.5809 118.112 18.49 122.082C17.5329 125.566 14.7226 128.661 11.1946 129.607C9.58952 130.029 7.89104 129.917 6.35468 129.289C4.81831 128.66 3.52714 127.549 2.67536 126.122C0.91174 123.336 0.869544 119.686 3.51752 117.437C4.18515 116.86 4.96287 116.425 5.80337 116.159C6.64386 115.893 7.52958 115.801 8.40666 115.889C9.28374 115.977 10.1339 116.242 10.9053 116.67C11.6768 117.097 12.3535 117.677 12.8942 118.374C13.9685 119.772 14.4493 121.538 14.2325 123.289C14.1021 124.174 15.4538 124.556 15.5854 123.663C15.9014 121.811 15.551 119.907 14.5966 118.29C13.6423 116.673 12.1459 115.448 10.3742 114.833C8.60251 114.219 6.67051 114.254 4.92244 114.933C3.17437 115.613 1.72378 116.892 0.829108 118.542C-0.767772 121.551 0.0938408 125.179 2.12092 127.75C3.16678 129.12 4.58434 130.159 6.204 130.742C7.82365 131.326 9.57682 131.429 11.2537 131.041C14.9436 130.187 17.9621 127.249 19.3816 123.796C20.9619 119.952 20.2378 115.662 18.6973 111.932C17.0319 107.9 14.559 104.284 12.6033 100.398C10.8325 96.8867 9.70568 93.0852 9.27648 89.1746C8.41749 81.3218 10.1964 73.4062 14.3317 66.6801C18.5466 60.0584 24.9801 55.1595 32.4764 52.8636C39.868 50.5389 48.0203 50.6101 55.2576 53.4671C62.3866 56.2814 69.2705 62.4146 69.1878 70.6518C69.1525 74.1705 67.8488 77.7589 65.1587 80.1058C61.9439 82.9106 57.4677 83.1503 53.4265 82.7126C49.3596 82.2721 45.4103 81.0821 41.3258 80.7785C37.7732 80.5145 33.9405 80.789 30.7685 82.5574C29.2913 83.3828 28.0336 84.5517 27.1015 85.9657C26.6005 86.7214 27.8151 87.4261 28.313 86.6752Z" fill="#6C6B79"/>
<path d="M32.2972 148.052C32.337 148.143 32.382 148.232 32.4318 148.317C32.482 148.407 32.537 148.494 32.5966 148.578L43.5426 164.363L44.3916 165.588L53.3202 178.457L61.9341 190.88L65.4197 195.913C65.5135 196.05 65.6188 196.179 65.7345 196.298C66.2734 196.866 66.9983 197.221 67.7768 197.299H67.8665V175.83L66.8678 174.389L55.6672 158.239L43.6377 140.893C43.1422 140.179 42.3845 139.692 41.5308 139.537C40.6771 139.382 39.797 139.573 39.0834 140.067L35.3931 142.634L33.4105 144.015C32.7837 144.452 32.3293 145.095 32.1259 145.832C31.9226 146.569 31.9832 147.355 32.2972 148.052Z" fill="#DEB199"/>
<path d="M30.5862 147.668L31.0804 148.664L31.0855 148.669L31.2204 148.934L39.245 164.894C39.6974 165.636 40.4247 166.169 41.2679 166.375C42.1111 166.582 43.0016 166.445 43.7444 165.995L44.2638 165.67L44.3935 165.59L54.7404 159.086C55.1097 158.861 55.4311 158.566 55.6859 158.217C55.9408 157.868 56.1241 157.472 56.2253 157.051C56.3265 156.631 56.3436 156.194 56.2755 155.767C56.2075 155.34 56.0557 154.931 55.8289 154.563L44.4635 139.123C43.3494 137.61 41.7494 136.527 39.9324 136.057C38.1154 135.587 36.1922 135.758 34.4862 136.541C34.1012 136.715 33.7305 136.919 33.3775 137.151C31.707 138.257 30.5 139.939 29.9854 141.878C29.4708 143.817 29.6846 145.877 30.5862 147.668Z" fill="#393838"/>
<path d="M89.5156 200.785V238.454C89.5169 239.323 89.8619 240.156 90.4751 240.77C91.0882 241.385 91.9195 241.73 92.7866 241.731H99.6928C100.56 241.73 101.391 241.384 102.004 240.77C102.617 240.156 102.962 239.323 102.964 238.454V200.785H89.5156Z" fill="#DEB199"/>
<path d="M49.2578 198.55V199.536C49.2585 200.057 49.4389 200.561 49.7683 200.964C50.0977 201.367 50.556 201.644 51.0656 201.747C51.1353 201.757 51.2053 201.772 51.2752 201.777C51.3501 201.782 51.425 201.787 51.5049 201.787H128.487C129.723 201.787 130.908 201.295 131.783 200.42C132.657 199.545 133.149 198.358 133.151 197.119V165.699C133.149 164.461 132.657 163.274 131.783 162.399C130.908 161.523 129.723 161.032 128.487 161.031H71.5243C70.2891 161.033 69.1048 161.525 68.2313 162.4C67.3579 163.275 66.8666 164.462 66.8652 165.699V196.299H51.5049C50.909 196.299 50.3374 196.536 49.916 196.958C49.4946 197.381 49.2578 197.953 49.2578 198.55Z" fill="white"/>
<path d="M49.2578 198.55V199.536C49.2585 200.057 49.4389 200.561 49.7683 200.964C50.0977 201.367 50.556 201.644 51.0656 201.747C51.1353 201.757 51.2053 201.772 51.2752 201.777C51.3501 201.782 51.425 201.787 51.5049 201.787H128.487C129.723 201.787 130.908 201.295 131.783 200.42C132.657 199.545 133.149 198.358 133.151 197.119V165.699C133.149 164.461 132.657 163.274 131.783 162.399C130.908 161.523 129.723 161.032 128.487 161.031H71.5243C70.2891 161.033 69.1048 161.525 68.2313 162.4C67.3579 163.275 66.8666 164.462 66.8652 165.699V196.299H51.5049C50.909 196.299 50.3374 196.536 49.916 196.958C49.4946 197.381 49.2578 197.953 49.2578 198.55ZM50.2565 199.536V198.55C50.2567 198.219 50.3882 197.901 50.6223 197.666C50.8564 197.431 51.1739 197.3 51.5049 197.299H67.864V165.699C67.8654 164.727 68.2515 163.795 68.9376 163.108C69.6238 162.42 70.554 162.033 71.5243 162.032H128.487C129.458 162.032 130.389 162.419 131.076 163.106C131.763 163.794 132.15 164.726 132.152 165.699V197.119C132.15 198.092 131.763 199.025 131.076 199.712C130.389 200.4 129.458 200.786 128.487 200.787H51.5049C51.1739 200.787 50.8564 200.655 50.6223 200.42C50.3882 200.186 50.2567 199.868 50.2565 199.536Z" fill="#3F3D56"/>
<path d="M100.012 185.258C102.133 185.258 103.852 183.535 103.852 181.41C103.852 179.285 102.133 177.562 100.012 177.562C97.8912 177.562 96.1719 179.285 96.1719 181.41C96.1719 183.535 97.8912 185.258 100.012 185.258Z" fill="#0496FF"/>
<path d="M67.8815 196.828H66.8828V201.331H67.8815V196.828Z" fill="#3F3D56"/>
</g>
<defs>
<clipPath id="clip0_2523_11492">
<rect width="255" height="259" fill="white"/>
</clipPath>
</defs>
</svg>
