<svg width="33" height="30" viewBox="0 0 33 30" fill="none" xmlns="http://www.w3.org/2000/svg">
<path d="M0 16.2544C-2.59446e-08 17.9956 0.342937 19.7196 1.00923 21.3282C1.67553 22.9368 2.65213 24.3984 3.88328 25.6295C5.11443 26.8607 6.57602 27.8373 8.1846 28.5036C9.79318 29.1699 11.5172 29.5128 13.2583 29.5128C14.9995 29.5128 16.7235 29.1699 18.3321 28.5036C19.9407 27.8373 21.4023 26.8607 22.6334 25.6295C23.8646 24.3984 24.8412 22.9368 25.5075 21.3282C26.1738 19.7196 26.5167 17.9956 26.5167 16.2544C26.5167 12.7381 25.1198 9.3658 22.6334 6.87937C20.147 4.39295 16.7747 2.99609 13.2583 2.99609C9.74202 2.99609 6.3697 4.39295 3.88328 6.87937C1.39686 9.3658 0 12.7381 0 16.2544Z" fill="white"/>
<path fill-rule="evenodd" clip-rule="evenodd" d="M32.4318 23.864H27.4747V15.8744C27.4747 13.7832 26.6104 12.3556 24.7098 12.3556C23.2561 12.3556 22.4476 13.319 22.0713 14.2474C21.9302 14.5807 21.9523 15.0449 21.9523 15.5092V23.864H16.4784C16.4784 23.864 16.5489 9.7113 16.4784 8.42482H21.9523V10.8479C22.2756 9.78843 24.0248 8.27638 26.8161 8.27638C30.2792 8.27638 32.4318 10.7271 32.4318 15.5092V23.864ZM10.9427 6.49365H10.9075C9.14358 6.49365 8 5.3134 8 3.81736C8 2.29221 9.17739 1.13672 10.9765 1.13672C12.7742 1.13672 13.8796 2.28932 13.9149 3.81301C13.9149 5.30904 12.7742 6.49365 10.9427 6.49365ZM8.63057 8.42482H13.5033V23.864H8.63057V8.42482Z" fill="#0496FF"/>
</svg>
