<svg width="36" height="32" viewBox="0 0 36 32" fill="none" xmlns="http://www.w3.org/2000/svg">
<path d="M3 18.2544C3 19.9956 3.34294 21.7196 4.00923 23.3282C4.67553 24.9368 5.65213 26.3984 6.88328 27.6295C8.11443 28.8607 9.57602 29.8373 11.1846 30.5036C12.7932 31.1699 14.5172 31.5128 16.2583 31.5128C17.9995 31.5128 19.7235 31.1699 21.3321 30.5036C22.9407 29.8373 24.4023 28.8607 25.6334 27.6295C26.8646 26.3984 27.8412 24.9368 28.5075 23.3282C29.1738 21.7196 29.5167 19.9956 29.5167 18.2544C29.5167 14.7381 28.1198 11.3658 25.6334 8.87937C23.147 6.39295 19.7747 4.99609 16.2583 4.99609C12.742 4.99609 9.3697 6.39295 6.88328 8.87937C4.39686 11.3658 3 14.7381 3 18.2544Z" fill="white"/>
<path opacity="0.4" d="M2.41424 4.94819L2.41425 4.9482L2.41528 4.94556C2.6867 4.2557 3.11827 3.61637 3.73061 3.0387L3.73069 3.03878L3.73826 3.03133C4.46279 2.31812 5.21708 2 5.9875 2C6.26748 2 6.54293 2.06022 6.78363 2.17576L6.78361 2.17581L6.79047 2.17898C7.04119 2.2947 7.25638 2.46401 7.4264 2.7096L7.42638 2.70962L7.42971 2.71432L10.3297 6.80182L10.3297 6.80183L10.3317 6.80465C10.5386 7.09199 10.68 7.34519 10.7747 7.57682L10.7747 7.57684L10.7779 7.58446C10.8709 7.80148 10.9125 7.99633 10.9125 8.15C10.9125 8.34935 10.8551 8.56035 10.7229 8.77752L10.7187 8.78443L10.7147 8.79147C10.5801 9.02956 10.3738 9.2941 10.0964 9.57144L10.0964 9.57138L10.0897 9.57835L9.14262 10.5628C8.9063 10.8011 8.8 11.093 8.8 11.4125C8.8 11.5599 8.81922 11.6884 8.85243 11.8213L8.85934 11.8489L8.86934 11.8756C8.89041 11.9318 8.91154 11.9816 8.92726 12.0187C8.9288 12.0223 8.93028 12.0258 8.9317 12.0292C8.94945 12.0711 8.95769 12.0917 8.96316 12.1081L8.97723 12.1503L8.99855 12.1894C9.24718 12.6452 9.65946 13.2125 10.2183 13.873L10.2183 13.873L10.2219 13.8772C10.7895 14.5331 11.3967 15.2036 12.0556 15.8752L12.0555 15.8753L12.064 15.8835C12.3782 16.189 12.693 16.495 13.0088 16.7841L9.63241 20.1605C9.3123 19.8669 8.99882 19.5667 8.69197 19.2599C7.42221 17.9777 6.27675 16.635 5.25507 15.2319C4.24824 13.832 3.4434 12.4398 2.86053 11.0678C2.28177 9.69303 2 8.39679 2 7.175C2 6.38425 2.13943 5.63522 2.41424 4.94819Z" stroke="#0496FF"/>
<path d="M26.4625 21.9133C26.4625 22.2633 26.4 22.6258 26.275 22.9758C26.2375 23.0758 26.2 23.1758 26.15 23.2758C25.9375 23.7258 25.6625 24.1508 25.3 24.5508C24.6875 25.2258 24.0125 25.7133 23.25 26.0258C23.2375 26.0258 23.225 26.0383 23.2125 26.0383C22.475 26.3383 21.675 26.5008 20.8125 26.5008C19.5375 26.5008 18.175 26.2008 16.7375 25.5883C15.3 24.9758 13.8625 24.1508 12.4375 23.1133C11.95 22.7508 11.4625 22.3883 11 22.0008L15.0875 17.9133C15.4375 18.1758 15.75 18.3758 16.0125 18.5133C16.075 18.5383 16.15 18.5758 16.2375 18.6133C16.3375 18.6508 16.4375 18.6633 16.55 18.6633C16.7625 18.6633 16.925 18.5883 17.0625 18.4508L18.0125 17.5133C18.325 17.2008 18.625 16.9633 18.9125 16.8133C19.2 16.6383 19.4875 16.5508 19.8 16.5508C20.0375 16.5508 20.2875 16.6008 20.5625 16.7133C20.8375 16.8258 21.125 16.9883 21.4375 17.2008L25.575 20.1383C25.9 20.3633 26.125 20.6258 26.2625 20.9383C26.3875 21.2508 26.4625 21.5633 26.4625 21.9133Z" fill="#0496FF"/>
</svg>
